<svg width="46" height="46" viewBox="0 0 46 46" fill="none" xmlns="http://www.w3.org/2000/svg">
<path fill-rule="evenodd" clip-rule="evenodd" d="M23.0552 3.44006e-05H23C10.2971 3.44006e-05 0 10.2971 0 23C0 35.7029 10.2971 46 23 46C35.7029 46 46 35.7029 46 23C46 10.9066 36.6666 0.993634 24.8124 0.0690343V0.0644346C24.2285 0.0205013 23.6431 -0.000981442 23.0575 3.44006e-05H23.0552ZM23 41.4C25.8129 41.4006 28.5885 40.7563 31.1135 39.5165C33.6385 38.2768 35.8456 36.4746 37.5653 34.2486C39.2849 32.0225 40.4713 29.4318 41.0332 26.6756C41.5951 23.9194 41.5176 21.071 40.8066 18.3494C36.7835 18.6267 32.758 17.8431 29.1327 16.0769C25.5074 14.3106 22.4093 11.6237 20.148 8.28463C18.4428 10.0287 16.4069 11.4152 14.1593 12.363C11.9118 13.3108 9.49788 13.8009 7.0587 13.8046C5.44463 16.6021 4.59536 19.7752 4.59622 23.0049C4.59709 26.2347 5.44806 29.4073 7.06363 32.2039C8.67919 35.0006 11.0024 37.3227 13.7998 38.937C16.5972 40.5512 19.7703 41.4007 23 41.4Z" fill="#E4C81F"/>
</svg>
