<?xml version="1.0" encoding="utf-8"?>
<!-- Generator: Adobe Illustrator 24.0.1, SVG Export Plug-In . SVG Version: 6.00 Build 0)  -->
<svg version="1.1" id="Layer_1" xmlns="http://www.w3.org/2000/svg" xmlns:xlink="http://www.w3.org/1999/xlink" x="0px" y="0px"
	 viewBox="0 0 40 40" style="enable-background:new 0 0 40 40;" xml:space="preserve">
<path d="M38.4,23c-0.9-1.2-2.5-1.5-3.7-0.6l-7.8,6H19c-0.6,0-1-0.5-1-1.1c0-0.6,0.5-1.1,1-1.1h5.1c1,0,2-0.7,2.2-1.8
	c0.2-1.4-0.8-2.5-2.1-2.5H13.6c-1.7,0-3.5,0.6-4.9,1.8l-3,2.6l-3.6,0c-0.5,0-1,0.5-1,1.1v6.5c0,0.6,0.5,1.1,1,1.1h22.7
	c1.5,0,2.9-0.5,4-1.4l8.9-6.8C39,25.9,39.2,24.2,38.4,23z M19.5,12c-0.5-0.1-1.1-0.3-1.7-0.5l-0.3-0.1c-0.8-0.4-1.7,0.1-2,1
	c-0.3,0.8,0.1,1.8,1,2.1l0.3,0.1c0.5,0.2,1.2,0.4,1.8,0.6v0.8c0,0.9,0.7,1.6,1.6,1.6s1.6-0.7,1.6-1.6v-0.7c1.6-0.4,2.8-1.5,3-3.1
	c0.6-3.4-2.5-4.4-4.2-4.9L20,7c-1.7-0.5-1.6-0.7-1.6-1c0.1-0.5,1-0.7,2.1-0.5c0.3,0,0.7,0.2,1.3,0.4c0.8,0.3,1.7-0.1,2-1
	s-0.1-1.8-1-2.1c-0.5-0.2-0.9-0.3-1.3-0.4V1.6C21.5,0.7,20.9,0,20,0c-0.9,0-1.6,0.7-1.6,1.6v0.7c-1.6,0.4-2.8,1.5-3.1,3.1
	c-0.5,3.4,2.7,4.4,3.9,4.7l0.4,0.1c2.1,0.6,2,0.8,2,1.1C21.5,11.9,20.5,12.1,19.5,12z"/>
</svg>
