<?xml version="1.0" encoding="utf-8"?>
<!-- Generator: Adobe Illustrator 24.0.1, SVG Export Plug-In . SVG Version: 6.00 Build 0)  -->
<svg version="1.1" id="Layer_1" xmlns="http://www.w3.org/2000/svg" xmlns:xlink="http://www.w3.org/1999/xlink" x="0px" y="0px"
	 viewBox="0 0 40 40" style="enable-background:new 0 0 40 40;" xml:space="preserve">
<path d="M37,2.7l-2-2c-0.2-0.2-0.5-0.4-0.7-0.5C34,0,33.7,0,33.4,0c-0.3,0-0.6,0-0.8,0.2c-0.3,0.1-0.5,0.3-0.7,0.5l-3.2,3.2
	c-0.3,0.3-0.5,0.6-0.6,1l-0.8,2.5l-5.2,5.2c-0.8-0.6-1.7-1.1-2.7-1.3c-2.3-0.5-4.6,0-6.1,1.5c-0.6,0.6-1.1,1.4-1.4,2.3
	c-0.4,1.3-1.6,2.2-2.9,2.4c-1.6,0.1-3.1,0.8-4.3,2C1.5,22.3,2.1,28,5.9,31.7s9.4,4.4,12.5,1.2c1.2-1.1,1.8-2.6,2-4.3
	c0.1-1.3,1.1-2.5,2.4-2.9c0.9-0.3,1.6-0.7,2.3-1.4c1.5-1.5,2-3.9,1.5-6.1c-0.2-1-0.7-1.9-1.3-2.7l5.2-5.2l2.5-0.8
	c0.4-0.1,0.7-0.3,1-0.6l3.2-3.2c0.4-0.4,0.6-1,0.6-1.5C37.7,3.6,37.4,3.1,37,2.7z M16.9,24.1c-0.6,0-1.3-0.2-1.8-0.5
	c-0.5-0.4-1-0.9-1.2-1.5c-0.2-0.6-0.3-1.3-0.2-1.9c0.1-0.6,0.5-1.2,0.9-1.7c0.5-0.5,1-0.8,1.7-0.9c0.6-0.1,1.3,0,1.9,0.2
	c0.6,0.2,1.1,0.7,1.5,1.2c0.4,0.5,0.5,1.2,0.5,1.8c0,0.9-0.4,1.7-1,2.3C18.6,23.7,17.7,24.1,16.9,24.1z"/>
</svg>
