<svg width="46" height="46" viewBox="0 0 46 46" fill="none" xmlns="http://www.w3.org/2000/svg">
<path d="M44.8563 15.8811C46.4557 20.7962 46.3533 26.1071 44.5656 30.9569C42.778 35.8067 39.4093 39.9128 35.0029 42.6128C30.5965 45.3128 25.4094 46.4494 20.2782 45.8391C15.1469 45.2289 10.3708 42.9074 6.72015 39.2491C3.06949 35.5909 0.757148 30.8092 0.156103 25.6752C-0.444943 20.5413 0.700352 15.3545 3.40725 10.9515C6.11415 6.5485 10.2248 3.18596 15.0763 1.40625C19.9277 -0.37345 25.237 -0.466543 30.1478 1.14199L27.1353 4.15249C26.9686 4.31639 26.8192 4.49753 26.6812 4.68443C22.7492 3.89055 18.6662 4.38358 15.036 6.09062C11.4058 7.79766 8.42123 10.6281 6.52362 14.1632C4.626 17.6984 3.91614 21.7506 4.499 25.7205C5.08186 29.6905 6.92651 33.3674 9.76012 36.2075C12.5937 39.0476 16.2659 40.9001 20.2334 41.4909C24.201 42.0817 28.2533 41.3796 31.791 39.4883C35.3288 37.5971 38.1641 34.6171 39.8777 30.9891C41.5914 27.3611 42.0923 23.2778 41.3063 19.343C41.503 19.2034 41.6876 19.0476 41.8582 18.8772L44.8534 15.8811H44.8563ZM37.0809 20.1395C37.698 23.1677 37.3232 26.3142 36.0121 29.1126C34.7009 31.9109 32.5232 34.2122 29.8018 35.6751C27.0804 37.1381 23.9601 37.6849 20.9036 37.2344C17.8471 36.784 15.0171 35.3603 12.833 33.1745C10.649 30.9886 9.22723 28.157 8.77851 25.0992C8.3298 22.0415 8.87802 18.9206 10.3419 16.199C11.8058 13.4775 14.1074 11.3003 16.9056 9.99017C19.7037 8.68003 22.8494 8.30672 25.8763 8.92558V13.3709C23.731 12.7303 21.4334 12.8238 19.3472 13.6366C17.2609 14.4494 15.5054 15.9351 14.3584 17.8585C13.2115 19.7819 12.7386 22.033 13.0148 24.2555C13.291 26.478 14.3003 28.5448 15.8831 30.1288C17.4659 31.7127 19.5316 32.7233 21.7533 33.0005C23.975 33.2777 26.2256 32.8057 28.1488 31.6591C30.0721 30.5126 31.5581 28.7571 32.3715 26.6706C33.185 24.5841 33.2794 22.2857 32.6399 20.1395H37.0809ZM22.9961 27.3279C23.6574 27.3282 24.3098 27.1764 24.9031 26.8842C25.4963 26.592 26.0144 26.1673 26.4173 25.6428C26.8202 25.1183 27.0971 24.5081 27.2266 23.8595C27.3561 23.2109 27.3347 22.5411 27.1641 21.9021L31.7115 17.3504L31.7977 17.2641H38.8113C39.0002 17.2645 39.1873 17.2276 39.3619 17.1555C39.5365 17.0835 39.6952 16.9777 39.8289 16.8443L45.5778 11.0936C45.7793 10.8925 45.9166 10.6361 45.9722 10.3569C46.0279 10.0777 45.9994 9.78822 45.8905 9.5252C45.7815 9.26218 45.5969 9.03746 45.36 8.87952C45.1232 8.72158 44.8448 8.63754 44.5602 8.63805H37.3741V1.44965C37.374 1.16553 37.2898 0.887787 37.1321 0.651506C36.9743 0.415225 36.7501 0.230998 36.4878 0.12209C36.2254 0.0131809 35.9367 -0.0155267 35.6581 0.0395919C35.3794 0.0947105 35.1234 0.231183 34.9222 0.431778L29.1733 6.18249C29.0394 6.31602 28.9332 6.47465 28.8607 6.64932C28.7882 6.82398 28.7508 7.01124 28.7508 7.20037V14.2162C28.7212 14.2442 28.6925 14.273 28.6645 14.3025L24.1172 18.8456C23.4778 18.6739 22.8075 18.6518 22.1582 18.7809C21.5089 18.9099 20.898 19.1867 20.3728 19.5898C19.8475 19.9928 19.4221 20.5114 19.1293 21.1053C18.8366 21.6993 18.6844 22.3526 18.6845 23.0148C18.6845 24.1587 19.1387 25.2558 19.9473 26.0646C20.7559 26.8735 21.8526 27.3279 22.9961 27.3279Z" fill="#E4C81F"/>
</svg>
