<?xml version="1.0" encoding="utf-8"?>
<!-- Generator: Adobe Illustrator 24.0.1, SVG Export Plug-In . SVG Version: 6.00 Build 0)  -->
<svg version="1.1" id="Layer_1" xmlns="http://www.w3.org/2000/svg" xmlns:xlink="http://www.w3.org/1999/xlink" x="0px" y="0px"
	 viewBox="0 0 40 40" style="enable-background:new 0 0 40 40;" xml:space="preserve">
<style type="text/css">
	.st0{fill-rule:evenodd;clip-rule:evenodd;}
</style>
<path class="st0" d="M28.3,0.6c2-2,6.9,1.5,0,6C21.4,2.1,26.3-1.5,28.3,0.6z"/>
<path class="st0" d="M22.4,13.8c0,1.9-0.7,3.7-2.1,5c-1.3,1.3-3.1,2.1-5,2.1s-3.7-0.7-5-2.1c-1.3-1.3-2.1-3.1-2.1-5s0.7-3.7,2.1-5
	c1.3-1.3,3.1-2.1,5-2.1s3.7,0.7,5,2.1C21.6,10.1,22.4,11.9,22.4,13.8z"/>
<path class="st0" d="M1.1,32.6C1.1,35,3.5,35,3.5,35h23.6c0,0,2.4,0,2.4-2.4s-2.4-9.4-14.1-9.4S1.1,30.3,1.1,32.6z"/>
<path class="st0" d="M33,9.2c3.3-3.4,11.5,2.5,0,10.1C21.5,11.7,29.7,5.9,33,9.2L33,9.2z"/>
<path class="st0" d="M36.5,2.7c1.3-1.4,4.6,1,0,4C31.9,3.8,35.2,1.4,36.5,2.7L36.5,2.7z"/>
</svg>
