<?xml version="1.0" encoding="utf-8"?>
<!-- Generator: Adobe Illustrator 24.0.1, SVG Export Plug-In . SVG Version: 6.00 Build 0)  -->
<svg version="1.1" id="Layer_1" xmlns="http://www.w3.org/2000/svg" xmlns:xlink="http://www.w3.org/1999/xlink" x="0px" y="0px"
	 viewBox="0 0 40 40" style="enable-background:new 0 0 40 40;" xml:space="preserve">
<style type="text/css">
	.st0{fill-rule:evenodd;clip-rule:evenodd;}
</style>
<path d="M5.2,35c0,0-2.4,0-2.4-2.4s2.4-9.8,14.6-9.8S32,30.2,32,32.6S29.5,35,29.5,35H5.2z M17.4,20.3c1.9,0,3.7-0.8,5.2-2.1
	c1.4-1.3,2.1-3.3,2.1-5.2s-0.8-3.7-2.1-5.2c-1.3-1.3-3.3-2.1-5.2-2.1s-3.7,0.8-5.2,2.1s-2.1,3.3-2.1,5.2s0.8,3.7,2.1,5.2
	C13.6,19.7,15.5,20.3,17.4,20.3z"/>
<path class="st0" d="M34.6,0c0.2,0,0.5,0.1,0.6,0.2s0.2,0.4,0.2,0.6v2.5H38c0.2,0,0.5,0.1,0.6,0.2s0.2,0.4,0.2,0.6s-0.1,0.5-0.2,0.6
	c-0.1,0.1-0.4,0.2-0.6,0.2h-2.5v2.5c0,0.2-0.1,0.5-0.2,0.6c-0.1,0.1-0.4,0.2-0.6,0.2S34.2,8.1,34.1,8c-0.1-0.1-0.2-0.4-0.2-0.6V4.9
	h-2.5c-0.2,0-0.5-0.1-0.6-0.2s-0.2-0.4-0.2-0.6s0.1-0.5,0.2-0.6s0.4-0.2,0.6-0.2h2.5V0.8c0-0.2,0.1-0.5,0.2-0.6S34.4,0,34.6,0z"/>
</svg>
